<svg
    xmlns="http://www.w3.org/2000/svg"
    viewBox="0 0 469 469"
	width="{{ .width }}" 
	height="{{ .height }}">
    <path
        id="path"
        d="M 270.336 234.965 L 34.39 462.165 C 23.341 454.614 16.781 442.054 16.897 428.672 L 16.897 41.258 C 16.781 27.876 23.341 15.316 34.39 7.765 L 270.336 234.965 Z"
        fill="#2196f3"
        stroke-width="1"/>
    <path
        id="path_1"
        d="M 352.896 155.605 L 270.336 234.965 L 34.39 7.765 C 35.279 7.076 36.205 6.435 37.163 5.845 C 49.633 -1.713 65.209 -1.957 77.91 5.205 L 352.896 155.605 Z"
        fill="#4caf50"
        stroke-width="1"/>
    <path
        id="path_2"
        d="M 452.95 234.965 C 453.104 250.072 444.895 264.026 431.617 271.232 L 352.897 314.325 L 270.337 234.965 L 352.897 155.605 L 431.617 198.698 C 444.895 205.904 453.104 219.858 452.95 234.965 Z"
        fill="#ffc107"
        stroke-width="1"/>
    <path
        id="path_3"
        d="M 352.896 314.325 L 77.91 464.725 C 65.181 471.776 49.664 471.532 37.163 464.085 C 36.205 463.495 35.279 462.854 34.39 462.165 L 270.337 234.965 L 352.896 314.325 Z"
        fill="#f44336"
        stroke-width="1"/>
</svg>
